<svg viewBox="0 0 64 64" xml:space="preserve" xmlns="http://www.w3.org/2000/svg" enable-background="new 0 0 64 64"><path d="M-226.2-181.6h-39.5c-2.3 0-4.2-1.9-4.2-4.2V-214c0-2.3 1.9-4.2 4.2-4.2h39.5c2.3 0 4.2 1.9 4.2 4.2v28.2c0 2.3-1.9 4.2-4.2 4.2zm-39.6-33.9c-.8 0-1.4.6-1.4 1.4v28.2c0 .8.6 1.4 1.4 1.4h39.5c.8 0 1.4-.6 1.4-1.4v-28.2c0-.8-.6-1.4-1.4-1.4h-39.5z" transform="translate(278 232)" fill="#e4dccf" class="fill-134563"></path><path d="M-238.9-201.5c-3.1 0-5.5-2.5-5.5-5.5s2.5-5.5 5.5-5.5 5.5 2.5 5.5 5.5-2.5 5.5-5.5 5.5zm0-8.5c-1.6 0-2.9 1.3-2.9 2.9 0 1.6 1.3 2.9 2.9 2.9 1.6 0 2.9-1.3 2.9-2.9 0-1.6-1.3-2.9-2.9-2.9zM-231.4-182.1l-23.1-21.7-13.2 12.2-1.8-1.9 15-13.9 24.9 23.4-1.8 1.9" transform="translate(278 232)" fill="#e4dccf" class="fill-134563"></path><path d="m-224.2-189.3-7.7-6.2-6.4 5.3-1.7-2.1 8.1-6.6 9.3 7.6-1.6 2" transform="translate(278 232)" fill="#e4dccf" class="fill-134563"></path></svg>