<?xml version="1.0" encoding="UTF-8" standalone="no"?>
<svg
   width="191.83673"
   zoomAndPan="magnify"
   viewBox="0 0 359.69387 124.11269"
   height="66.193436"
   preserveAspectRatio="xMidYMid meet"
   version="1.0"
   id="svg514"
   sodipodi:docname="logo-icon.svg"
   inkscape:export-filename="/Users/Timon/Documents/CodingProjects/portfolioWebsite/img/logo-icon.png"
   inkscape:export-xdpi="96"
   inkscape:export-ydpi="96"
   inkscape:version="1.1.2 (b8e25be8, 2022-02-05)"
   xmlns:inkscape="http://www.inkscape.org/namespaces/inkscape"
   xmlns:sodipodi="http://sodipodi.sourceforge.net/DTD/sodipodi-0.dtd"
   xmlns="http://www.w3.org/2000/svg"
   xmlns:svg="http://www.w3.org/2000/svg">
  <sodipodi:namedview
     id="namedview516"
     pagecolor="#505050"
     bordercolor="#eeeeee"
     borderopacity="1"
     inkscape:pageshadow="0"
     inkscape:pageopacity="0"
     inkscape:pagecheckerboard="0"
     showgrid="false"
     inkscape:snap-others="true"
     fit-margin-top="0"
     fit-margin-left="0"
     fit-margin-right="0"
     fit-margin-bottom="0"
     inkscape:zoom="5.635"
     inkscape:cx="43.38953"
     inkscape:cy="29.547471"
     inkscape:window-width="1296"
     inkscape:window-height="969"
     inkscape:window-x="206"
     inkscape:window-y="17"
     inkscape:window-maximized="0"
     inkscape:current-layer="svg514" />
  <defs
     id="defs268">
    <g
       id="g260" />
    <clipPath
       id="id1">
      <path
         d="M 80.367188,138.51172 H 296.28125 v 3.27344 H 80.367188 Z m 0,0"
         clip-rule="nonzero"
         id="path262" />
    </clipPath>
    <clipPath
       id="id2">
      <path
         d="M 80.367188,102.99219 H 296.28125 v 3.27344 H 80.367188 Z m 0,0"
         clip-rule="nonzero"
         id="path265" />
    </clipPath>
  </defs>
  <g
     fill="#3d3d3d"
     fill-opacity="1"
     id="g276"
     transform="translate(-7.9858027,-26.952084)">
    <g
       transform="translate(11.542746,81.654638)"
       id="g274">
      <g
         id="g272">
        <path
           d="m 16.957031,-3.269531 v -2.082031 l -14.75,-7.683594 14.75,-7.679688 v -2.085937 l -16.546875,8.910156 v 1.714844 z m 0,0"
           id="path270" />
      </g>
    </g>
  </g>
  <g
     fill="#3d3d3d"
     fill-opacity="1"
     id="g284"
     transform="translate(-7.9858027,-26.952084)">
    <g
       transform="translate(32.578837,81.654638)"
       id="g282">
      <g
         id="g280">
        <path
           d="m 14.953125,0.0390625 h 2.902344 V -31.667969 h 8.292969 c 1.757812,0 4.25,1.269531 5.070312,2.574219 l 0.324219,0.492188 0.328125,-0.04297 -1.347656,-3.429688 v -0.367187 H 2.246094 v 0.570312 c -0.367188,0.898438 -0.980469,2.453125 -1.265625,3.269532 h 0.367187 l 0.328125,-0.492188 c 0.816407,-1.304688 3.308594,-2.574219 5.066407,-2.574219 h 8.210937 z M 2.207031,-32.359375 c 0.039063,-0.04297 0.039063,-0.08203 0.039063,-0.08203 z m 28.519531,0.324219 c 0,-0.08203 -0.121093,-0.367188 -0.121093,-0.367188 H 30.5625 Z m -28.644531,-0.03906 c 0.042969,-0.04297 0.082031,-0.125 0.082031,-0.164062 z m 0,0"
           id="path278" />
      </g>
    </g>
  </g>
  <g
     fill="#3d3d3d"
     fill-opacity="1"
     id="g292"
     transform="translate(-7.9858027,-26.952084)">
    <g
       transform="translate(65.297106,81.654638)"
       id="g290">
      <g
         id="g288">
        <path
           d="M 4.25,0 H 7.152344 V -32.441406 H 4.25 Z m 0,0"
           id="path286" />
      </g>
    </g>
  </g>
  <g
     fill="#3d3d3d"
     fill-opacity="1"
     id="g300"
     transform="translate(-7.9858027,-26.952084)">
    <g
       transform="translate(76.284889,81.654638)"
       id="g298">
      <g
         id="g296">
        <path
           d="M 2.003906,0.0390625 H 5.882812 V -0.0820312 H 5.640625 c -0.613281,0 -1.144531,-1.0195308 -1.144531,-2.0429688 L 4.984375,-28.480469 C 8.785156,-18.960938 12.542969,-9.4375 16.34375,0.0390625 h 0.734375 l 0.04297,-0.2031245 10.335937,-29.542969 0.695313,27.867187 c -0.08203,1.105469 -0.570313,1.7578128 -1.347656,1.7578128 v 0.1210937 h 5.71875 V -0.0820312 H 32.28125 c -0.574219,0 -1.1875,-1.0195308 -1.226562,-2.0429688 l -0.777344,-28.480469 c 0.08203,-1.0625 0.570312,-1.675781 1.347656,-1.675781 l -0.08203,-0.160156 H 27.335938 L 17.570312,-3.71875 6.863281,-32.441406 H 2.042969 v 0.121094 c 0.816406,0 1.714843,0.859374 2.207031,2.003906 C 3.964844,-20.921875 3.757812,-11.480469 3.472656,-2.125 3.433594,-1.101562 2.820312,-0.0820312 2.246094,-0.0820312 H 2.003906 Z m 0,0"
           id="path294" />
      </g>
    </g>
  </g>
  <g
     fill="#3d3d3d"
     fill-opacity="1"
     id="g308"
     transform="translate(-7.9858027,-26.952084)">
    <g
       transform="translate(109.20739,81.654638)"
       id="g306">
      <g
         id="g304">
        <path
           d="m 16.875,0.410156 c 7.925781,0 15.691406,-8.214844 15.691406,-16.632812 0,-8.414063 -7.558594,-16.628906 -15.28125,-16.628906 -7.519531,0 -14.914062,8.214843 -14.914062,16.628906 0,8.417968 7.191406,16.632812 14.503906,16.632812 z m 0.04297,-0.207031 c -5.761719,0 -11.402344,-8.128906 -11.402344,-16.425781 0,-8.292969 5.800781,-16.425782 11.726563,-16.425782 6.128906,0 12.175781,8.132813 12.175781,16.425782 0,8.296875 -6.167969,16.425781 -12.5,16.425781 z m 0,0"
           id="path302" />
      </g>
    </g>
  </g>
  <g
     fill="#3d3d3d"
     fill-opacity="1"
     id="g316"
     transform="translate(-7.9858027,-26.952084)">
    <g
       transform="translate(144.00885,81.654638)"
       id="g314">
      <g
         id="g312">
        <path
           d="m 24.148438,0.0390625 h 0.570312 l 0.207031,-30.2773435 c 0,-1.019531 0.613281,-2.042969 1.183594,-2.042969 h 0.246094 v -0.121094 h -2.289063 v 2.164063 L 24.148438,-5.3125 23.78125,-5.84375 5.066406,-32.402344 H 0.121094 v 0.121094 c 0.902344,0 2.003906,0.859375 2.863281,2.042969 L 3.675781,-29.253906 3.636719,-2.125 c 0,1.023438 -0.570313,2.0429688 -1.183594,2.0429688 H 2.207031 V 0 H 5.964844 V -0.121094 H 5.71875 c -0.609375,0 -1.183594,-1.023437 -1.183594,-2.042968 l -0.082031,-26.03125 c 6.578125,9.398437 13.117187,18.839843 19.695313,28.2343745 z m 0,0"
           id="path310" />
      </g>
    </g>
  </g>
  <g
     fill="#3d3d3d"
     fill-opacity="1"
     id="g322"
     transform="translate(-7.9858027,-26.952084)">
    <g
       transform="translate(172.76498,81.654638)"
       id="g320">
      <g
         id="g318" />
    </g>
  </g>
  <g
     fill="#3d3d3d"
     fill-opacity="1"
     id="g330"
     transform="translate(-7.9858027,-26.952084)">
    <g
       transform="translate(184.32462,81.654638)"
       id="g328">
      <g
         id="g326">
        <path
           d="m 12.828125,0.410156 c 4.539063,0 8.992187,-4.167968 8.992187,-8.460937 0,-2.980469 -3.597656,-7.597657 -8.132812,-9.683594 -4.738281,-2.207031 -8.539062,-6.046875 -8.539062,-8.128906 0,-3.433594 2.695312,-6.785157 5.476562,-6.785157 1.304688,0 2.816406,0.449219 4.207031,1.1875 1.632813,0.855469 3.882813,3.1875 4.496094,4.738282 0.03906,0.164062 0.203125,0.410156 0.242187,0.574218 h 0.53125 v -4.128906 h -0.203124 l -0.03906,0.449219 c -0.04297,0.492187 -0.980469,0.285156 -1.839844,-0.367187 -1.714843,-1.308594 -4.660156,-2.695313 -7.394531,-2.695313 -3.925781,0 -7.765625,4.042969 -7.765625,8.128906 0,2.941407 4.046875,7.683594 9.113281,10.050781 4.167969,1.960938 7.515625,5.476563 7.515625,7.519532 0,3.675781 -3.308593,7.3125 -6.660156,7.3125 -1.796875,0 -4.042969,-0.980469 -6.003906,-2.449219 C 5.351562,-3.515625 3.515625,-5.925781 2.902344,-7.4375 2.859375,-7.601562 2.695312,-7.84375 2.65625,-8.007812 H 2.125 v 5.597656 H 2.328125 L 2.371094,-3.226562 C 2.410156,-4.125 3.636719,-4.046875 4.78125,-3.066406 7.109375,-1.0625 10.296875,0.410156 12.828125,0.410156 Z m 0,0"
           id="path324" />
      </g>
    </g>
  </g>
  <g
     fill="#3d3d3d"
     fill-opacity="1"
     id="g338"
     transform="translate(-7.9858027,-26.952084)">
    <g
       transform="translate(207.77067,81.654638)"
       id="g336">
      <g
         id="g334">
        <path
           d="m 16.34375,0.410156 c 3.800781,0 7.355469,-1.351562 9.847656,-3.148437 1.101563,-0.816407 2.289063,-0.9375 2.328125,-0.285157 l 0.04297,0.570313 h 0.160156 v -4.617187 h -0.527344 c -0.53125,1.636718 -2.699218,3.964843 -4.457031,5.027343 C 21.574219,-0.695312 19,0.203125 16.386719,0.203125 c -5.476563,0 -10.871094,-8.128906 -10.871094,-16.425781 0,-8.292969 5.597656,-16.425782 11.320313,-16.425782 2.410156,0 4.738281,0.898438 6.78125,2.207032 0,0 3.390624,2.453125 4.371093,4.578125 0.04297,0.121093 0.207031,0.40625 0.246094,0.53125 h 0.53125 v -4.535157 H 28.5625 l -0.04297,0.570313 c -0.08203,0.652344 -1.265625,0.449219 -2.449219,-0.410156 -2.414062,-1.796875 -5.597656,-3.144531 -9.277343,-3.144531 -7.273438,0 -14.382813,8.214843 -14.382813,16.628906 0,8.417968 6.90625,16.632812 13.933595,16.632812 z m 0,0"
           id="path332" />
      </g>
    </g>
  </g>
  <g
     fill="#3d3d3d"
     fill-opacity="1"
     id="g346"
     transform="translate(-7.9858027,-26.952084)">
    <g
       transform="translate(238.32406,81.654638)"
       id="g344">
      <g
         id="g342">
        <path
           d="M 5.640625,0 H 8.539062 V -16.546875 H 24.394531 V 0 h 2.898438 v -32.441406 h -2.898438 v 15.648437 H 8.539062 V -32.441406 H 5.640625 Z m 0,0"
           id="path340" />
      </g>
    </g>
  </g>
  <g
     fill="#3d3d3d"
     fill-opacity="1"
     id="g354"
     transform="translate(-7.9858027,-26.952084)">
    <g
       transform="translate(269.4493,81.654638)"
       id="g352">
      <g
         id="g350">
        <path
           d="M 4.25,0 H 7.152344 V -32.441406 H 4.25 Z m 0,0"
           id="path348" />
      </g>
    </g>
  </g>
  <g
     fill="#3d3d3d"
     fill-opacity="1"
     id="g362"
     transform="translate(-7.9858027,-26.952084)">
    <g
       transform="translate(280.43708,81.654638)"
       id="g360">
      <g
         id="g358">
        <path
           d="m 4.25,0 h 17.9375 c 0,-0.941406 0.40625,-2.613281 0.570312,-3.515625 H 22.390625 L 22.1875,-3.023438 c -0.53125,1.308594 -3.105469,2.574219 -5.269531,2.574219 L 8.539062,-0.492188 c -1.0625,0 -1.386718,-0.449218 -1.386718,-0.898437 V -32.441406 H 4.25 Z m 0,0"
           id="path356" />
      </g>
    </g>
  </g>
  <g
     fill="#3d3d3d"
     fill-opacity="1"
     id="g370"
     transform="translate(-7.9858027,-26.952084)">
    <g
       transform="translate(303.59721,81.654638)"
       id="g368">
      <g
         id="g366">
        <path
           d="m 4.25,0 h 17.9375 c 0,-0.941406 0.40625,-2.613281 0.570312,-3.515625 H 22.390625 L 22.1875,-3.023438 c -0.53125,1.308594 -3.105469,2.574219 -5.269531,2.574219 L 8.539062,-0.492188 c -1.0625,0 -1.386718,-0.449218 -1.386718,-0.898437 V -32.441406 H 4.25 Z m 0,0"
           id="path364" />
      </g>
    </g>
  </g>
  <g
     fill="#3d3d3d"
     fill-opacity="1"
     id="g378"
     transform="translate(-7.9858027,-26.952084)">
    <g
       transform="translate(326.75733,81.654638)"
       id="g376">
      <g
         id="g374">
        <path
           d="m 1.390625,3.269531 h 1.46875 l 11.523437,-36.53125 h -1.472656 z m 0,0"
           id="path372" />
      </g>
    </g>
  </g>
  <g
     fill="#3d3d3d"
     fill-opacity="1"
     id="g386"
     transform="translate(-7.9858027,-26.952084)">
    <g
       transform="translate(342.3608,81.654638)"
       id="g384">
      <g
         id="g382">
        <path
           d="m 4.085938,-3.269531 16.546874,-8.90625 v -1.714844 L 4.085938,-22.800781 v 2.085937 l 14.75,7.679688 -14.75,7.683594 z m 0,0"
           id="path380" />
      </g>
    </g>
  </g>
  <g
     fill="#3d3d3d"
     fill-opacity="1"
     id="g394"
     transform="translate(-7.9858027,-26.952084)">
    <g
       transform="translate(94.227827,125.72769)"
       id="g392">
      <g
         id="g390">
        <path
           d="M 4.199219,0.0898438 H 4.582031 L 6.59375,-5.335938 8.953125,0.0898438 H 9.332031 C 10.132812,-2.605469 10.917969,-5.3125 11.714844,-8.007812 11.847656,-8.457031 12.1875,-8.90625 12.398438,-8.90625 h 0.07812 l 0.01172,-0.011719 h -2.15625 v 0.035157 h 0.160157 c 0.425781,0 0.738281,0.390624 0.671874,0.808593 L 9.546875,-2.113281 7.074219,-8.085938 C 6.941406,-8.503906 7.132812,-8.894531 7.492188,-8.894531 H 7.625 V -8.929688 H 4.738281 v 0.035157 c 0.191407,0 0.460938,0.347656 0.675781,0.796875 0.304688,0.71875 0.628907,1.4375 0.921876,2.144531 L 4.886719,-1.832031 2.390625,-8.074219 C 2.246094,-8.503906 2.347656,-8.90625 2.617188,-8.90625 H 2.71875 V -8.941406 H 0.113281 v 0.035156 c 0.167969,0 0.449219,0.425781 0.652344,0.898438 z m 0,0"
           id="path388" />
      </g>
    </g>
  </g>
  <g
     fill="#3d3d3d"
     fill-opacity="1"
     id="g402"
     transform="translate(-7.9858027,-26.952084)">
    <g
       transform="translate(111.43018,125.72769)"
       id="g400">
      <g
         id="g398">
        <path
           d="m 0.964844,0 h 5.582031 l 0.011719,-0.046875 c 0.011718,0 0.148437,-0.839844 0.15625,-0.898437 H 6.617188 L 6.558594,-0.808594 C 6.414062,-0.449219 5.707031,-0.101562 5.109375,-0.101562 H 2.863281 c -0.292969,0 -0.382812,-0.132813 -0.382812,-0.28125 v -4.199219 h 1.933593 c 0.449219,0 0.964844,0.402343 1.042969,0.808593 l 0.035157,0.144532 H 5.59375 V -5.636719 H 5.492188 l -0.035157,0.144531 c -0.078125,0.402344 -0.59375,0.808594 -1.042969,0.808594 H 2.480469 v -4.132812 h 2.617187 c 0.449219,0 1.011719,0.402344 1.136719,0.808594 l 0.054687,0.144531 h 0.101563 l -0.125,-1.007813 H 6.277344 L 6.265625,-8.917969 H 0.964844 Z m 0,0"
           id="path396" />
      </g>
    </g>
  </g>
  <g
     fill="#3d3d3d"
     fill-opacity="1"
     id="g410"
     transform="translate(-7.9858027,-26.952084)">
    <g
       transform="translate(123.10658,125.72769)"
       id="g408">
      <g
         id="g406">
        <path
           d="m 0.953125,0 h 2.875 c 1.898437,0 3.765625,-0.742188 3.765625,-2.335938 0,-1.113281 -1.539062,-2.203124 -3.203125,-2.3125 1.496094,-0.261718 2.773437,-1.191406 2.773437,-2.136718 0,-1.078125 -1.144531,-2.132813 -3.613281,-2.132813 H 0.953125 Z m 1.519531,-4.660156 v -4.167969 h 0.898438 c 1.558594,0 2.289062,1.089844 2.289062,2.203125 0,0.988281 -1.042968,1.964844 -2.109375,1.964844 z m 0.648438,4.613281 c -0.324219,0 -0.640625,-0.167969 -0.640625,-0.335937 v -4.199219 h 1.328125 c 1.066406,0 2.109375,1.113281 2.109375,2.246093 0,1.5625 -1.109375,2.289063 -2.234375,2.289063 z m 0,0"
           id="path404" />
      </g>
    </g>
  </g>
  <g
     fill="#3d3d3d"
     fill-opacity="1"
     id="g416"
     transform="translate(-7.9858027,-26.952084)">
    <g
       transform="translate(135.7489,125.72769)"
       id="g414">
      <g
         id="g412" />
    </g>
  </g>
  <g
     fill="#3d3d3d"
     fill-opacity="1"
     id="g424"
     transform="translate(-7.9858027,-26.952084)">
    <g
       transform="translate(143.52792,125.72769)"
       id="g422">
      <g
         id="g420">
        <path
           d="m 0.964844,0 h 2.539062 c 2.863282,0 5.660156,-1.976562 5.660156,-4.457031 0,-2.25 -2.289062,-4.460938 -5.15625,-4.460938 H 0.964844 Z m 2.394531,-0.0898438 c -0.664063,0 -0.878906,-0.1445312 -0.878906,-0.2929682 v -8.445313 h 1.160156 c 2.144531,0 3.863281,2.167969 3.863281,4.371094 0,2.425781 -2.054687,4.3671872 -4.144531,4.3671872 z m 0,0"
           id="path418" />
      </g>
    </g>
  </g>
  <g
     fill="#3d3d3d"
     fill-opacity="1"
     id="g432"
     transform="translate(-7.9858027,-26.952084)">
    <g
       transform="translate(157.91115,125.72769)"
       id="g430">
      <g
         id="g428">
        <path
           d="m 0.964844,0 h 5.582031 l 0.011719,-0.046875 c 0.011718,0 0.148437,-0.839844 0.15625,-0.898437 H 6.617188 L 6.558594,-0.808594 C 6.414062,-0.449219 5.707031,-0.101562 5.109375,-0.101562 H 2.863281 c -0.292969,0 -0.382812,-0.132813 -0.382812,-0.28125 v -4.199219 h 1.933593 c 0.449219,0 0.964844,0.402343 1.042969,0.808593 l 0.035157,0.144532 H 5.59375 V -5.636719 H 5.492188 l -0.035157,0.144531 c -0.078125,0.402344 -0.59375,0.808594 -1.042969,0.808594 H 2.480469 v -4.132812 h 2.617187 c 0.449219,0 1.011719,0.402344 1.136719,0.808594 l 0.054687,0.144531 h 0.101563 l -0.125,-1.007813 H 6.277344 L 6.265625,-8.917969 H 0.964844 Z m 0,0"
           id="path426" />
      </g>
    </g>
  </g>
  <g
     fill="#3d3d3d"
     fill-opacity="1"
     id="g440"
     transform="translate(-7.9858027,-26.952084)">
    <g
       transform="translate(169.58755,125.72769)"
       id="g438">
      <g
         id="g436">
        <path
           d="m 4.097656,0.125 h 0.304688 l 3.3125,-8.019531 c 0.238281,-0.507813 0.597656,-0.96875 0.765625,-0.96875 h 0.066406 l 0.023437,-0.054688 h -2.15625 v 0.035157 h 0.167969 c 0.460938,0 0.71875,0.539062 0.527344,1.089843 L 4.886719,-1.933594 C 4.054688,-3.875 3.199219,-5.816406 2.371094,-7.75 2.121094,-8.3125 2.269531,-8.871094 2.671875,-8.871094 H 2.820312 V -8.90625 h -2.957031 v 0.035156 c 0.1718752,0 0.507813,0.539063 0.765625,1.121094 z m 0,0"
           id="path434" />
      </g>
    </g>
  </g>
  <g
     fill="#3d3d3d"
     fill-opacity="1"
     id="g448"
     transform="translate(-7.9858027,-26.952084)">
    <g
       transform="translate(182.93746,125.72769)"
       id="g446">
      <g
         id="g444">
        <path
           d="m 0.964844,0 h 5.582031 l 0.011719,-0.046875 c 0.011718,0 0.148437,-0.839844 0.15625,-0.898437 H 6.617188 L 6.558594,-0.808594 C 6.414062,-0.449219 5.707031,-0.101562 5.109375,-0.101562 H 2.863281 c -0.292969,0 -0.382812,-0.132813 -0.382812,-0.28125 v -4.199219 h 1.933593 c 0.449219,0 0.964844,0.402343 1.042969,0.808593 l 0.035157,0.144532 H 5.59375 V -5.636719 H 5.492188 l -0.035157,0.144531 c -0.078125,0.402344 -0.59375,0.808594 -1.042969,0.808594 H 2.480469 v -4.132812 h 2.617187 c 0.449219,0 1.011719,0.402344 1.136719,0.808594 l 0.054687,0.144531 h 0.101563 l -0.125,-1.007813 H 6.277344 L 6.265625,-8.917969 H 0.964844 Z m 0,0"
           id="path442" />
      </g>
    </g>
  </g>
  <g
     fill="#3d3d3d"
     fill-opacity="1"
     id="g456"
     transform="translate(-7.9858027,-26.952084)">
    <g
       transform="translate(194.61386,125.72769)"
       id="g454">
      <g
         id="g452">
        <path
           d="M 0.808594,0 H 6.457031 L 6.46875,-0.136719 H 6.457031 L 6.636719,-1.101562 H 6.535156 L 6.480469,-0.964844 C 6.335938,-0.605469 5.628906,-0.257812 5.03125,-0.257812 H 2.707031 c -0.292969,0 -0.382812,-0.058594 -0.382812,-0.125 V -8.917969 H 0.808594 Z m 0,0"
           id="path450" />
      </g>
    </g>
  </g>
  <g
     fill="#3d3d3d"
     fill-opacity="1"
     id="g464"
     transform="translate(-7.9858027,-26.952084)">
    <g
       transform="translate(205.94208,125.72769)"
       id="g462">
      <g
         id="g460">
        <path
           d="m 4.929688,0.113281 c 2.425781,0 4.808593,-2.257812 4.808593,-4.570312 0,-2.316407 -2.324219,-4.574219 -4.695312,-4.574219 -2.324219,0 -4.59375,2.257812 -4.59375,4.574219 0,2.3125 2.222656,4.570312 4.480469,4.570312 z M 4.953125,0 c -1.4375,0 -2.851563,-2.210938 -2.851563,-4.457031 0,-2.25 1.449219,-4.460938 2.917969,-4.460938 1.550781,0 3.066407,2.210938 3.066407,4.460938 C 8.085938,-2.210938 6.535156,0 4.953125,0 Z m 0,0"
           id="path458" />
      </g>
    </g>
  </g>
  <g
     fill="#3d3d3d"
     fill-opacity="1"
     id="g472"
     transform="translate(-7.9858027,-26.952084)">
    <g
       transform="translate(220.89812,125.72769)"
       id="g470">
      <g
         id="g468">
        <path
           d="m 1.347656,0 h 1.515625 v -4.019531 h 0.640625 c 1.886719,0 3.730469,-0.988281 3.730469,-2.371094 0,-1.28125 -1.539063,-2.527344 -3.101563,-2.527344 H 1.347656 Z M 2.863281,-4.335938 V -8.660156 H 3.75 c 1.035156,0 2.058594,1 2.058594,2.011718 0,1.347657 -1.136719,2.3125 -2.304688,2.3125 z m 0,0"
           id="path466" />
      </g>
    </g>
  </g>
  <g
     fill="#3d3d3d"
     fill-opacity="1"
     id="g480"
     transform="translate(-7.9858027,-26.952084)">
    <g
       transform="translate(232.95639,125.72769)"
       id="g478">
      <g
         id="g476">
        <path
           d="m 0.484375,0 h 1.3125 V -0.0351562 H 1.730469 c -0.15625,0 -0.316407,-0.2812498 -0.316407,-0.5585938 L 1.503906,-7.414062 C 2.527344,-4.941406 3.539062,-2.472656 4.558594,0 H 4.941406 L 4.953125,-0.0546875 7.523438,-7.492188 7.683594,-0.527344 C 7.671875,-0.269531 7.523438,-0.0351562 7.367188,-0.0351562 H 7.300781 L 7.289062,0 h 2.3125 V -0.0351562 C 9.378906,-0.0351562 9.230469,-0.226562 9.1875,-0.527344 9.109375,-3.121094 9.019531,-5.726562 8.953125,-8.324219 8.941406,-8.601562 9.097656,-8.882812 9.253906,-8.882812 H 9.320312 V -8.917969 H 7.480469 L 5.1875,-1.941406 2.695312,-8.917969 H 0.503906 v 0.035157 c 0.238282,0 0.496094,0.246093 0.621094,0.550781 l -0.226562,7.816406 c -0.042969,0.300781 -0.191407,0.4804688 -0.414063,0.4804688 z m 0,0"
           id="path474" />
      </g>
    </g>
  </g>
  <g
     fill="#3d3d3d"
     fill-opacity="1"
     id="g488"
     transform="translate(-7.9858027,-26.952084)">
    <g
       transform="translate(247.261,125.72769)"
       id="g486">
      <g
         id="g484">
        <path
           d="m 0.964844,0 h 5.582031 l 0.011719,-0.046875 c 0.011718,0 0.148437,-0.839844 0.15625,-0.898437 H 6.617188 L 6.558594,-0.808594 C 6.414062,-0.449219 5.707031,-0.101562 5.109375,-0.101562 H 2.863281 c -0.292969,0 -0.382812,-0.132813 -0.382812,-0.28125 v -4.199219 h 1.933593 c 0.449219,0 0.964844,0.402343 1.042969,0.808593 l 0.035157,0.144532 H 5.59375 V -5.636719 H 5.492188 l -0.035157,0.144531 c -0.078125,0.402344 -0.59375,0.808594 -1.042969,0.808594 H 2.480469 v -4.132812 h 2.617187 c 0.449219,0 1.011719,0.402344 1.136719,0.808594 l 0.054687,0.144531 h 0.101563 l -0.125,-1.007813 H 6.277344 L 6.265625,-8.917969 H 0.964844 Z m 0,0"
           id="path482" />
      </g>
    </g>
  </g>
  <g
     fill="#3d3d3d"
     fill-opacity="1"
     id="g496"
     transform="translate(-7.9858027,-26.952084)">
    <g
       transform="translate(258.9374,125.72769)"
       id="g494">
      <g
         id="g492">
        <path
           d="M 6.75,0.0117188 H 7.066406 L 7.164062,-8.390625 C 7.199219,-8.691406 7.34375,-8.871094 7.570312,-8.871094 V -8.90625 H 6.714844 v 0.59375 l 0.023437,5.683594 C 5.066406,-4.726562 3.378906,-6.816406 1.695312,-8.90625 h -2.246093 v 0.035156 c 0.234375,0 0.5742185,0.246094 0.820312,0.558594 l 0.683594,0.886719 -0.019531,6.839843 c 0,0.28125 -0.160156,0.5625005 -0.328125,0.5625005 H 0.539062 L 0.550781,0 H 1.796875 V -0.0351562 H 1.730469 c -0.15625,0 -0.328125,-0.2812498 -0.328125,-0.5585938 L 1.359375,-6.917969 c 1.796875,2.3125 3.59375,4.625 5.390625,6.9296878 z m 0,0"
           id="path490" />
      </g>
    </g>
  </g>
  <g
     fill="#3d3d3d"
     fill-opacity="1"
     id="g504"
     transform="translate(-7.9858027,-26.952084)">
    <g
       transform="translate(271.77066,125.72769)"
       id="g502">
      <g
         id="g500">
        <path
           d="m 3.738281,0 h 1.519531 v -8.535156 h 1.976563 c 0.480469,0 1.167969,0.347656 1.390625,0.707031 l 0.089844,0.132813 H 8.816406 L 8.402344,-8.726562 H 8.390625 V -8.917969 H 0.617188 L 0.59375,-8.863281 0.550781,-8.726562 0.617188,-8.894531 v 0.28125 L 0.246094,-7.695312 H 0.347656 L 0.4375,-7.828125 C 0.664062,-8.1875 1.347656,-8.535156 1.832031,-8.535156 h 1.90625 z M 8.492188,-8.726562 8.445312,-8.863281 C 8.433594,-8.90625 8.433594,-8.917969 8.414062,-8.917969 Z m 0,0"
           id="path498" />
      </g>
    </g>
  </g>
  <g
     clip-path="url(#id1)"
     id="g508"
     transform="translate(-7.9858027,-26.952084)">
    <path
       fill="#a8a8a8"
       d="M 80.367188,32.191406 H 296.28125 V 248.10547 H 80.367188 Z m 0,0"
       fill-opacity="1"
       fill-rule="nonzero"
       id="path506" />
  </g>
  <g
     clip-path="url(#id2)"
     id="g512"
     transform="translate(-7.9858027,-26.952084)">
    <path
       fill="#a8a8a8"
       d="M 80.367188,-3.328125 H 296.28125 V 212.58594 H 80.367188 Z m 0,0"
       fill-opacity="1"
       fill-rule="nonzero"
       id="path510" />
  </g>
</svg>
