<svg xmlns="http://www.w3.org/2000/svg" xmlns:xlink="http://www.w3.org/1999/xlink" width="200" zoomAndPan="magnify" viewBox="0 0 375 187.499995" height="100" preserveAspectRatio="xMidYMid meet" version="1.0"><defs><g/><clipPath id="id1"><path d="M 80.367188 138.511719 L 296.28125 138.511719 L 296.28125 141.785156 L 80.367188 141.785156 Z M 80.367188 138.511719 " clip-rule="nonzero"/></clipPath><clipPath id="id2"><path d="M 80.367188 102.992188 L 296.28125 102.992188 L 296.28125 106.265625 L 80.367188 106.265625 Z M 80.367188 102.992188 " clip-rule="nonzero"/></clipPath></defs><g fill="rgb(23.919678%, 23.919678%, 23.919678%)" fill-opacity="1"><g transform="translate(11.542746, 81.654638)"><g><path d="M 16.957031 -3.269531 L 16.957031 -5.351562 L 2.207031 -13.035156 L 16.957031 -20.714844 L 16.957031 -22.800781 L 0.410156 -13.890625 L 0.410156 -12.175781 Z M 16.957031 -3.269531 "/></g></g></g><g fill="rgb(23.919678%, 23.919678%, 23.919678%)" fill-opacity="1"><g transform="translate(32.578837, 81.654638)"><g><path d="M 14.953125 0.0390625 L 17.855469 0.0390625 L 17.855469 -31.667969 L 26.148438 -31.667969 C 27.90625 -31.667969 30.398438 -30.398438 31.21875 -29.09375 L 31.542969 -28.601562 L 31.871094 -28.644531 L 30.523438 -32.074219 L 30.523438 -32.441406 L 2.246094 -32.441406 L 2.246094 -31.871094 C 1.878906 -30.972656 1.265625 -29.417969 0.980469 -28.601562 L 1.347656 -28.601562 L 1.675781 -29.09375 C 2.492188 -30.398438 4.984375 -31.667969 6.742188 -31.667969 L 14.953125 -31.667969 Z M 2.207031 -32.359375 C 2.246094 -32.402344 2.246094 -32.441406 2.246094 -32.441406 Z M 30.726562 -32.035156 C 30.726562 -32.117188 30.605469 -32.402344 30.605469 -32.402344 L 30.5625 -32.402344 Z M 2.082031 -32.074219 C 2.125 -32.117188 2.164062 -32.199219 2.164062 -32.238281 Z M 2.082031 -32.074219 "/></g></g></g><g fill="rgb(23.919678%, 23.919678%, 23.919678%)" fill-opacity="1"><g transform="translate(65.297106, 81.654638)"><g><path d="M 4.25 0 L 7.152344 0 L 7.152344 -32.441406 L 4.25 -32.441406 Z M 4.25 0 "/></g></g></g><g fill="rgb(23.919678%, 23.919678%, 23.919678%)" fill-opacity="1"><g transform="translate(76.284889, 81.654638)"><g><path d="M 2.003906 0.0390625 L 5.882812 0.0390625 L 5.882812 -0.0820312 L 5.640625 -0.0820312 C 5.027344 -0.0820312 4.496094 -1.101562 4.496094 -2.125 L 4.984375 -28.480469 C 8.785156 -18.960938 12.542969 -9.4375 16.34375 0.0390625 L 17.078125 0.0390625 L 17.121094 -0.164062 L 27.457031 -29.707031 L 28.152344 -1.839844 C 28.070312 -0.734375 27.582031 -0.0820312 26.804688 -0.0820312 L 26.804688 0.0390625 L 32.523438 0.0390625 L 32.523438 -0.0820312 L 32.28125 -0.0820312 C 31.707031 -0.0820312 31.09375 -1.101562 31.054688 -2.125 L 30.277344 -30.605469 C 30.359375 -31.667969 30.847656 -32.28125 31.625 -32.28125 L 31.542969 -32.441406 L 27.335938 -32.441406 L 17.570312 -3.71875 L 6.863281 -32.441406 L 2.042969 -32.441406 L 2.042969 -32.320312 C 2.859375 -32.320312 3.757812 -31.460938 4.25 -30.316406 C 3.964844 -20.921875 3.757812 -11.480469 3.472656 -2.125 C 3.433594 -1.101562 2.820312 -0.0820312 2.246094 -0.0820312 L 2.003906 -0.0820312 Z M 2.003906 0.0390625 "/></g></g></g><g fill="rgb(23.919678%, 23.919678%, 23.919678%)" fill-opacity="1"><g transform="translate(109.207392, 81.654638)"><g><path d="M 16.875 0.410156 C 24.800781 0.410156 32.566406 -7.804688 32.566406 -16.222656 C 32.566406 -24.636719 25.007812 -32.851562 17.285156 -32.851562 C 9.765625 -32.851562 2.371094 -24.636719 2.371094 -16.222656 C 2.371094 -7.804688 9.5625 0.410156 16.875 0.410156 Z M 16.917969 0.203125 C 11.15625 0.203125 5.515625 -7.925781 5.515625 -16.222656 C 5.515625 -24.515625 11.316406 -32.648438 17.242188 -32.648438 C 23.371094 -32.648438 29.417969 -24.515625 29.417969 -16.222656 C 29.417969 -7.925781 23.25 0.203125 16.917969 0.203125 Z M 16.917969 0.203125 "/></g></g></g><g fill="rgb(23.919678%, 23.919678%, 23.919678%)" fill-opacity="1"><g transform="translate(144.008846, 81.654638)"><g><path d="M 24.148438 0.0390625 L 24.71875 0.0390625 L 24.925781 -30.238281 C 24.925781 -31.257812 25.539062 -32.28125 26.109375 -32.28125 L 26.355469 -32.28125 L 26.355469 -32.402344 L 24.066406 -32.402344 L 24.066406 -30.238281 L 24.148438 -5.3125 L 23.78125 -5.84375 L 5.066406 -32.402344 L 0.121094 -32.402344 L 0.121094 -32.28125 C 1.023438 -32.28125 2.125 -31.421875 2.984375 -30.238281 L 3.675781 -29.253906 L 3.636719 -2.125 C 3.636719 -1.101562 3.066406 -0.0820312 2.453125 -0.0820312 L 2.207031 -0.0820312 L 2.207031 0 L 5.964844 0 L 5.964844 -0.121094 L 5.71875 -0.121094 C 5.109375 -0.121094 4.535156 -1.144531 4.535156 -2.164062 L 4.453125 -28.195312 C 11.03125 -18.796875 17.570312 -9.355469 24.148438 0.0390625 Z M 24.148438 0.0390625 "/></g></g></g><g fill="rgb(23.919678%, 23.919678%, 23.919678%)" fill-opacity="1"><g transform="translate(172.764978, 81.654638)"><g/></g></g><g fill="rgb(23.919678%, 23.919678%, 23.919678%)" fill-opacity="1"><g transform="translate(184.324616, 81.654638)"><g><path d="M 12.828125 0.410156 C 17.367188 0.410156 21.820312 -3.757812 21.820312 -8.050781 C 21.820312 -11.03125 18.222656 -15.648438 13.6875 -17.734375 C 8.949219 -19.941406 5.148438 -23.78125 5.148438 -25.863281 C 5.148438 -29.296875 7.84375 -32.648438 10.625 -32.648438 C 11.929688 -32.648438 13.441406 -32.199219 14.832031 -31.460938 C 16.464844 -30.605469 18.714844 -28.273438 19.328125 -26.722656 C 19.367188 -26.558594 19.53125 -26.3125 19.570312 -26.148438 L 20.101562 -26.148438 L 20.101562 -30.277344 L 19.898438 -30.277344 L 19.859375 -29.828125 C 19.816406 -29.335938 18.878906 -29.542969 18.019531 -30.195312 C 16.304688 -31.503906 13.359375 -32.890625 10.625 -32.890625 C 6.699219 -32.890625 2.859375 -28.847656 2.859375 -24.761719 C 2.859375 -21.820312 6.90625 -17.078125 11.972656 -14.710938 C 16.140625 -12.75 19.488281 -9.234375 19.488281 -7.191406 C 19.488281 -3.515625 16.179688 0.121094 12.828125 0.121094 C 11.03125 0.121094 8.785156 -0.859375 6.824219 -2.328125 C 5.351562 -3.515625 3.515625 -5.925781 2.902344 -7.4375 C 2.859375 -7.601562 2.695312 -7.84375 2.65625 -8.007812 L 2.125 -8.007812 L 2.125 -2.410156 L 2.328125 -2.410156 L 2.371094 -3.226562 C 2.410156 -4.125 3.636719 -4.046875 4.78125 -3.066406 C 7.109375 -1.0625 10.296875 0.410156 12.828125 0.410156 Z M 12.828125 0.410156 "/></g></g></g><g fill="rgb(23.919678%, 23.919678%, 23.919678%)" fill-opacity="1"><g transform="translate(207.770666, 81.654638)"><g><path d="M 16.34375 0.410156 C 20.144531 0.410156 23.699219 -0.941406 26.191406 -2.738281 C 27.292969 -3.554688 28.480469 -3.675781 28.519531 -3.023438 L 28.5625 -2.453125 L 28.722656 -2.453125 L 28.722656 -7.070312 L 28.195312 -7.070312 C 27.664062 -5.433594 25.496094 -3.105469 23.738281 -2.042969 C 21.574219 -0.695312 19 0.203125 16.386719 0.203125 C 10.910156 0.203125 5.515625 -7.925781 5.515625 -16.222656 C 5.515625 -24.515625 11.113281 -32.648438 16.835938 -32.648438 C 19.246094 -32.648438 21.574219 -31.75 23.617188 -30.441406 C 23.617188 -30.441406 27.007812 -27.988281 27.988281 -25.863281 C 28.03125 -25.742188 28.195312 -25.457031 28.234375 -25.332031 L 28.765625 -25.332031 L 28.765625 -29.867188 L 28.5625 -29.867188 L 28.519531 -29.296875 C 28.4375 -28.644531 27.253906 -28.847656 26.070312 -29.707031 C 23.65625 -31.503906 20.472656 -32.851562 16.792969 -32.851562 C 9.519531 -32.851562 2.410156 -24.636719 2.410156 -16.222656 C 2.410156 -7.804688 9.316406 0.410156 16.34375 0.410156 Z M 16.34375 0.410156 "/></g></g></g><g fill="rgb(23.919678%, 23.919678%, 23.919678%)" fill-opacity="1"><g transform="translate(238.324056, 81.654638)"><g><path d="M 5.640625 0 L 8.539062 0 L 8.539062 -16.546875 L 24.394531 -16.546875 L 24.394531 0 L 27.292969 0 L 27.292969 -32.441406 L 24.394531 -32.441406 L 24.394531 -16.792969 L 8.539062 -16.792969 L 8.539062 -32.441406 L 5.640625 -32.441406 Z M 5.640625 0 "/></g></g></g><g fill="rgb(23.919678%, 23.919678%, 23.919678%)" fill-opacity="1"><g transform="translate(269.4493, 81.654638)"><g><path d="M 4.25 0 L 7.152344 0 L 7.152344 -32.441406 L 4.25 -32.441406 Z M 4.25 0 "/></g></g></g><g fill="rgb(23.919678%, 23.919678%, 23.919678%)" fill-opacity="1"><g transform="translate(280.437083, 81.654638)"><g><path d="M 4.25 0 L 22.1875 0 C 22.1875 -0.941406 22.59375 -2.613281 22.757812 -3.515625 L 22.390625 -3.515625 L 22.1875 -3.023438 C 21.65625 -1.714844 19.082031 -0.449219 16.917969 -0.449219 L 8.539062 -0.492188 C 7.476562 -0.492188 7.152344 -0.941406 7.152344 -1.390625 L 7.152344 -32.441406 L 4.25 -32.441406 Z M 4.25 0 "/></g></g></g><g fill="rgb(23.919678%, 23.919678%, 23.919678%)" fill-opacity="1"><g transform="translate(303.597206, 81.654638)"><g><path d="M 4.25 0 L 22.1875 0 C 22.1875 -0.941406 22.59375 -2.613281 22.757812 -3.515625 L 22.390625 -3.515625 L 22.1875 -3.023438 C 21.65625 -1.714844 19.082031 -0.449219 16.917969 -0.449219 L 8.539062 -0.492188 C 7.476562 -0.492188 7.152344 -0.941406 7.152344 -1.390625 L 7.152344 -32.441406 L 4.25 -32.441406 Z M 4.25 0 "/></g></g></g><g fill="rgb(23.919678%, 23.919678%, 23.919678%)" fill-opacity="1"><g transform="translate(326.757329, 81.654638)"><g><path d="M 1.390625 3.269531 L 2.859375 3.269531 L 14.382812 -33.261719 L 12.910156 -33.261719 Z M 1.390625 3.269531 "/></g></g></g><g fill="rgb(23.919678%, 23.919678%, 23.919678%)" fill-opacity="1"><g transform="translate(342.360798, 81.654638)"><g><path d="M 4.085938 -3.269531 L 20.632812 -12.175781 L 20.632812 -13.890625 L 4.085938 -22.800781 L 4.085938 -20.714844 L 18.835938 -13.035156 L 4.085938 -5.351562 Z M 4.085938 -3.269531 "/></g></g></g><g fill="rgb(23.919678%, 23.919678%, 23.919678%)" fill-opacity="1"><g transform="translate(94.227827, 125.727695)"><g><path d="M 4.199219 0.0898438 L 4.582031 0.0898438 L 6.59375 -5.335938 L 8.953125 0.0898438 L 9.332031 0.0898438 C 10.132812 -2.605469 10.917969 -5.3125 11.714844 -8.007812 C 11.847656 -8.457031 12.1875 -8.90625 12.398438 -8.90625 L 12.476562 -8.90625 L 12.488281 -8.917969 L 10.332031 -8.917969 L 10.332031 -8.882812 L 10.492188 -8.882812 C 10.917969 -8.882812 11.230469 -8.492188 11.164062 -8.074219 L 9.546875 -2.113281 L 7.074219 -8.085938 C 6.941406 -8.503906 7.132812 -8.894531 7.492188 -8.894531 L 7.625 -8.894531 L 7.625 -8.929688 L 4.738281 -8.929688 L 4.738281 -8.894531 C 4.929688 -8.894531 5.199219 -8.546875 5.414062 -8.097656 C 5.71875 -7.378906 6.042969 -6.660156 6.335938 -5.953125 L 4.886719 -1.832031 L 2.390625 -8.074219 C 2.246094 -8.503906 2.347656 -8.90625 2.617188 -8.90625 L 2.71875 -8.90625 L 2.71875 -8.941406 L 0.113281 -8.941406 L 0.113281 -8.90625 C 0.28125 -8.90625 0.5625 -8.480469 0.765625 -8.007812 Z M 4.199219 0.0898438 "/></g></g></g><g fill="rgb(23.919678%, 23.919678%, 23.919678%)" fill-opacity="1"><g transform="translate(111.430185, 125.727695)"><g><path d="M 0.964844 0 L 6.546875 0 L 6.558594 -0.046875 C 6.570312 -0.046875 6.707031 -0.886719 6.714844 -0.945312 L 6.617188 -0.945312 L 6.558594 -0.808594 C 6.414062 -0.449219 5.707031 -0.101562 5.109375 -0.101562 L 2.863281 -0.101562 C 2.570312 -0.101562 2.480469 -0.234375 2.480469 -0.382812 L 2.480469 -4.582031 L 4.414062 -4.582031 C 4.863281 -4.582031 5.378906 -4.179688 5.457031 -3.773438 L 5.492188 -3.628906 L 5.59375 -3.628906 L 5.59375 -5.636719 L 5.492188 -5.636719 L 5.457031 -5.492188 C 5.378906 -5.089844 4.863281 -4.683594 4.414062 -4.683594 L 2.480469 -4.683594 L 2.480469 -8.816406 L 5.097656 -8.816406 C 5.546875 -8.816406 6.109375 -8.414062 6.234375 -8.007812 L 6.289062 -7.863281 L 6.390625 -7.863281 L 6.265625 -8.871094 L 6.277344 -8.871094 L 6.265625 -8.917969 L 0.964844 -8.917969 Z M 0.964844 0 "/></g></g></g><g fill="rgb(23.919678%, 23.919678%, 23.919678%)" fill-opacity="1"><g transform="translate(123.106583, 125.727695)"><g><path d="M 0.953125 0 L 3.828125 0 C 5.726562 0 7.59375 -0.742188 7.59375 -2.335938 C 7.59375 -3.449219 6.054688 -4.539062 4.390625 -4.648438 C 5.886719 -4.910156 7.164062 -5.839844 7.164062 -6.785156 C 7.164062 -7.863281 6.019531 -8.917969 3.550781 -8.917969 L 0.953125 -8.917969 Z M 2.472656 -4.660156 L 2.472656 -8.828125 L 3.371094 -8.828125 C 4.929688 -8.828125 5.660156 -7.738281 5.660156 -6.625 C 5.660156 -5.636719 4.617188 -4.660156 3.550781 -4.660156 Z M 3.121094 -0.046875 C 2.796875 -0.046875 2.480469 -0.214844 2.480469 -0.382812 L 2.480469 -4.582031 L 3.808594 -4.582031 C 4.875 -4.582031 5.917969 -3.46875 5.917969 -2.335938 C 5.917969 -0.773438 4.808594 -0.046875 3.683594 -0.046875 Z M 3.121094 -0.046875 "/></g></g></g><g fill="rgb(23.919678%, 23.919678%, 23.919678%)" fill-opacity="1"><g transform="translate(135.7489, 125.727695)"><g/></g></g><g fill="rgb(23.919678%, 23.919678%, 23.919678%)" fill-opacity="1"><g transform="translate(143.527923, 125.727695)"><g><path d="M 0.964844 0 L 3.503906 0 C 6.367188 0 9.164062 -1.976562 9.164062 -4.457031 C 9.164062 -6.707031 6.875 -8.917969 4.007812 -8.917969 L 0.964844 -8.917969 Z M 3.359375 -0.0898438 C 2.695312 -0.0898438 2.480469 -0.234375 2.480469 -0.382812 L 2.480469 -8.828125 L 3.640625 -8.828125 C 5.785156 -8.828125 7.503906 -6.660156 7.503906 -4.457031 C 7.503906 -2.03125 5.449219 -0.0898438 3.359375 -0.0898438 Z M 3.359375 -0.0898438 "/></g></g></g><g fill="rgb(23.919678%, 23.919678%, 23.919678%)" fill-opacity="1"><g transform="translate(157.911146, 125.727695)"><g><path d="M 0.964844 0 L 6.546875 0 L 6.558594 -0.046875 C 6.570312 -0.046875 6.707031 -0.886719 6.714844 -0.945312 L 6.617188 -0.945312 L 6.558594 -0.808594 C 6.414062 -0.449219 5.707031 -0.101562 5.109375 -0.101562 L 2.863281 -0.101562 C 2.570312 -0.101562 2.480469 -0.234375 2.480469 -0.382812 L 2.480469 -4.582031 L 4.414062 -4.582031 C 4.863281 -4.582031 5.378906 -4.179688 5.457031 -3.773438 L 5.492188 -3.628906 L 5.59375 -3.628906 L 5.59375 -5.636719 L 5.492188 -5.636719 L 5.457031 -5.492188 C 5.378906 -5.089844 4.863281 -4.683594 4.414062 -4.683594 L 2.480469 -4.683594 L 2.480469 -8.816406 L 5.097656 -8.816406 C 5.546875 -8.816406 6.109375 -8.414062 6.234375 -8.007812 L 6.289062 -7.863281 L 6.390625 -7.863281 L 6.265625 -8.871094 L 6.277344 -8.871094 L 6.265625 -8.917969 L 0.964844 -8.917969 Z M 0.964844 0 "/></g></g></g><g fill="rgb(23.919678%, 23.919678%, 23.919678%)" fill-opacity="1"><g transform="translate(169.587547, 125.727695)"><g><path d="M 4.097656 0.125 L 4.402344 0.125 L 7.714844 -7.894531 C 7.953125 -8.402344 8.3125 -8.863281 8.480469 -8.863281 L 8.546875 -8.863281 L 8.570312 -8.917969 L 6.414062 -8.917969 L 6.414062 -8.882812 L 6.582031 -8.882812 C 7.042969 -8.882812 7.300781 -8.34375 7.109375 -7.792969 L 4.886719 -1.933594 C 4.054688 -3.875 3.199219 -5.816406 2.371094 -7.75 C 2.121094 -8.3125 2.269531 -8.871094 2.671875 -8.871094 L 2.820312 -8.871094 L 2.820312 -8.90625 L -0.136719 -8.90625 L -0.136719 -8.871094 C 0.0351562 -8.871094 0.371094 -8.332031 0.628906 -7.75 Z M 4.097656 0.125 "/></g></g></g><g fill="rgb(23.919678%, 23.919678%, 23.919678%)" fill-opacity="1"><g transform="translate(182.937461, 125.727695)"><g><path d="M 0.964844 0 L 6.546875 0 L 6.558594 -0.046875 C 6.570312 -0.046875 6.707031 -0.886719 6.714844 -0.945312 L 6.617188 -0.945312 L 6.558594 -0.808594 C 6.414062 -0.449219 5.707031 -0.101562 5.109375 -0.101562 L 2.863281 -0.101562 C 2.570312 -0.101562 2.480469 -0.234375 2.480469 -0.382812 L 2.480469 -4.582031 L 4.414062 -4.582031 C 4.863281 -4.582031 5.378906 -4.179688 5.457031 -3.773438 L 5.492188 -3.628906 L 5.59375 -3.628906 L 5.59375 -5.636719 L 5.492188 -5.636719 L 5.457031 -5.492188 C 5.378906 -5.089844 4.863281 -4.683594 4.414062 -4.683594 L 2.480469 -4.683594 L 2.480469 -8.816406 L 5.097656 -8.816406 C 5.546875 -8.816406 6.109375 -8.414062 6.234375 -8.007812 L 6.289062 -7.863281 L 6.390625 -7.863281 L 6.265625 -8.871094 L 6.277344 -8.871094 L 6.265625 -8.917969 L 0.964844 -8.917969 Z M 0.964844 0 "/></g></g></g><g fill="rgb(23.919678%, 23.919678%, 23.919678%)" fill-opacity="1"><g transform="translate(194.613862, 125.727695)"><g><path d="M 0.808594 0 L 6.457031 0 L 6.46875 -0.136719 L 6.457031 -0.136719 L 6.636719 -1.101562 L 6.535156 -1.101562 L 6.480469 -0.964844 C 6.335938 -0.605469 5.628906 -0.257812 5.03125 -0.257812 L 2.707031 -0.257812 C 2.414062 -0.257812 2.324219 -0.316406 2.324219 -0.382812 L 2.324219 -8.917969 L 0.808594 -8.917969 Z M 0.808594 0 "/></g></g></g><g fill="rgb(23.919678%, 23.919678%, 23.919678%)" fill-opacity="1"><g transform="translate(205.942083, 125.727695)"><g><path d="M 4.929688 0.113281 C 7.355469 0.113281 9.738281 -2.144531 9.738281 -4.457031 C 9.738281 -6.773438 7.414062 -9.03125 5.042969 -9.03125 C 2.71875 -9.03125 0.449219 -6.773438 0.449219 -4.457031 C 0.449219 -2.144531 2.671875 0.113281 4.929688 0.113281 Z M 4.953125 0 C 3.515625 0 2.101562 -2.210938 2.101562 -4.457031 C 2.101562 -6.707031 3.550781 -8.917969 5.019531 -8.917969 C 6.570312 -8.917969 8.085938 -6.707031 8.085938 -4.457031 C 8.085938 -2.210938 6.535156 0 4.953125 0 Z M 4.953125 0 "/></g></g></g><g fill="rgb(23.919678%, 23.919678%, 23.919678%)" fill-opacity="1"><g transform="translate(220.898119, 125.727695)"><g><path d="M 1.347656 0 L 2.863281 0 L 2.863281 -4.019531 L 3.503906 -4.019531 C 5.390625 -4.019531 7.234375 -5.007812 7.234375 -6.390625 C 7.234375 -7.671875 5.695312 -8.917969 4.132812 -8.917969 L 1.347656 -8.917969 Z M 2.863281 -4.335938 L 2.863281 -8.660156 L 3.75 -8.660156 C 4.785156 -8.660156 5.808594 -7.660156 5.808594 -6.648438 C 5.808594 -5.300781 4.671875 -4.335938 3.503906 -4.335938 Z M 2.863281 -4.335938 "/></g></g></g><g fill="rgb(23.919678%, 23.919678%, 23.919678%)" fill-opacity="1"><g transform="translate(232.956395, 125.727695)"><g><path d="M 0.484375 0 L 1.796875 0 L 1.796875 -0.0351562 L 1.730469 -0.0351562 C 1.574219 -0.0351562 1.414062 -0.316406 1.414062 -0.59375 L 1.503906 -7.414062 C 2.527344 -4.941406 3.539062 -2.472656 4.558594 0 L 4.941406 0 L 4.953125 -0.0546875 L 7.523438 -7.492188 L 7.683594 -0.527344 C 7.671875 -0.269531 7.523438 -0.0351562 7.367188 -0.0351562 L 7.300781 -0.0351562 L 7.289062 0 L 9.601562 0 L 9.601562 -0.0351562 C 9.378906 -0.0351562 9.230469 -0.226562 9.1875 -0.527344 C 9.109375 -3.121094 9.019531 -5.726562 8.953125 -8.324219 C 8.941406 -8.601562 9.097656 -8.882812 9.253906 -8.882812 L 9.320312 -8.882812 L 9.320312 -8.917969 L 7.480469 -8.917969 L 5.1875 -1.941406 L 2.695312 -8.917969 L 0.503906 -8.917969 L 0.503906 -8.882812 C 0.742188 -8.882812 1 -8.636719 1.125 -8.332031 L 0.898438 -0.515625 C 0.855469 -0.214844 0.707031 -0.0351562 0.484375 -0.0351562 Z M 0.484375 0 "/></g></g></g><g fill="rgb(23.919678%, 23.919678%, 23.919678%)" fill-opacity="1"><g transform="translate(247.260997, 125.727695)"><g><path d="M 0.964844 0 L 6.546875 0 L 6.558594 -0.046875 C 6.570312 -0.046875 6.707031 -0.886719 6.714844 -0.945312 L 6.617188 -0.945312 L 6.558594 -0.808594 C 6.414062 -0.449219 5.707031 -0.101562 5.109375 -0.101562 L 2.863281 -0.101562 C 2.570312 -0.101562 2.480469 -0.234375 2.480469 -0.382812 L 2.480469 -4.582031 L 4.414062 -4.582031 C 4.863281 -4.582031 5.378906 -4.179688 5.457031 -3.773438 L 5.492188 -3.628906 L 5.59375 -3.628906 L 5.59375 -5.636719 L 5.492188 -5.636719 L 5.457031 -5.492188 C 5.378906 -5.089844 4.863281 -4.683594 4.414062 -4.683594 L 2.480469 -4.683594 L 2.480469 -8.816406 L 5.097656 -8.816406 C 5.546875 -8.816406 6.109375 -8.414062 6.234375 -8.007812 L 6.289062 -7.863281 L 6.390625 -7.863281 L 6.265625 -8.871094 L 6.277344 -8.871094 L 6.265625 -8.917969 L 0.964844 -8.917969 Z M 0.964844 0 "/></g></g></g><g fill="rgb(23.919678%, 23.919678%, 23.919678%)" fill-opacity="1"><g transform="translate(258.937398, 125.727695)"><g><path d="M 6.75 0.0117188 L 7.066406 0.0117188 L 7.164062 -8.390625 C 7.199219 -8.691406 7.34375 -8.871094 7.570312 -8.871094 L 7.570312 -8.90625 L 6.714844 -8.90625 L 6.714844 -8.3125 L 6.738281 -2.628906 C 5.066406 -4.726562 3.378906 -6.816406 1.695312 -8.90625 L -0.550781 -8.90625 L -0.550781 -8.871094 C -0.316406 -8.871094 0.0234375 -8.625 0.269531 -8.3125 L 0.953125 -7.425781 L 0.933594 -0.585938 C 0.933594 -0.304688 0.773438 -0.0234375 0.605469 -0.0234375 L 0.539062 -0.0234375 L 0.550781 0 L 1.796875 0 L 1.796875 -0.0351562 L 1.730469 -0.0351562 C 1.574219 -0.0351562 1.402344 -0.316406 1.402344 -0.59375 L 1.359375 -6.917969 C 3.15625 -4.605469 4.953125 -2.292969 6.75 0.0117188 Z M 6.75 0.0117188 "/></g></g></g><g fill="rgb(23.919678%, 23.919678%, 23.919678%)" fill-opacity="1"><g transform="translate(271.770657, 125.727695)"><g><path d="M 3.738281 0 L 5.257812 0 L 5.257812 -8.535156 L 7.234375 -8.535156 C 7.714844 -8.535156 8.402344 -8.1875 8.625 -7.828125 L 8.714844 -7.695312 L 8.816406 -7.695312 L 8.402344 -8.726562 L 8.390625 -8.726562 L 8.390625 -8.917969 L 0.617188 -8.917969 L 0.59375 -8.863281 L 0.550781 -8.726562 L 0.617188 -8.894531 L 0.617188 -8.613281 L 0.246094 -7.695312 L 0.347656 -7.695312 L 0.4375 -7.828125 C 0.664062 -8.1875 1.347656 -8.535156 1.832031 -8.535156 L 3.738281 -8.535156 Z M 8.492188 -8.726562 L 8.445312 -8.863281 C 8.433594 -8.90625 8.433594 -8.917969 8.414062 -8.917969 Z M 8.492188 -8.726562 "/></g></g></g><g clip-path="url(#id1)"><path fill="rgb(65.879822%, 65.879822%, 65.879822%)" d="M 80.367188 32.191406 L 296.28125 32.191406 L 296.28125 248.105469 L 80.367188 248.105469 Z M 80.367188 32.191406 " fill-opacity="1" fill-rule="nonzero"/></g><g clip-path="url(#id2)"><path fill="rgb(65.879822%, 65.879822%, 65.879822%)" d="M 80.367188 -3.328125 L 296.28125 -3.328125 L 296.28125 212.585938 L 80.367188 212.585938 Z M 80.367188 -3.328125 " fill-opacity="1" fill-rule="nonzero"/></g></svg>
